# MagicaVoxel @ Ephtracy

# group
o 

# material
mtllib Props-12.mtl
usemtl palette

# normals
vn -1 0 0
vn 1 0 0
vn 0 0 1
vn 0 0 -1
vn 0 -1 0
vn 0 1 0

# texcoords
vt 0.900391 0.5
vt 0.904297 0.5
vt 0.912109 0.5

# verts
v -0.7 0.4 0.2
v -0.7 0.4 0.1
v -0.7 0.4 -0.2
v -0.7 0.4 -0.4
v -0.7 0.6 0.2
v -0.7 0.6 0.1
v -0.7 0.6 -0.2
v -0.7 0.6 -0.4
v -0.7 0.7 -0.1
v -0.7 0.7 -0.2
v -0.7 0.9 0.2
v -0.7 0.9 0.1
v -0.7 0.9 -0.1
v -0.7 0.9 -0.2
v -0.7 0.9 -0.4
v -0.7 1 0.1
v -0.7 1 -0.2
v -0.6 0.4 0.4
v -0.6 0.4 0.2
v -0.6 0.4 -0.4
v -0.6 0.4 -0.5
v -0.6 0.6 0.2
v -0.6 0.6 -0.4
v -0.6 0.7 0.4
v -0.6 0.7 0.2
v -0.6 0.9 0.4
v -0.6 0.9 0.2
v -0.6 0.9 0.1
v -0.6 0.9 -0.2
v -0.6 0.9 -0.4
v -0.6 0.9 -0.5
v -0.6 1 0.2
v -0.6 1 0.1
v -0.6 1 -0.2
v -0.6 1 -0.4
v -0.6 1.2 0.1
v -0.6 1.2 -0.2
v -0.4 0 0.1
v -0.4 0 -0.2
v -0.4 0.4 0.5
v -0.4 0.4 0.4
v -0.4 0.4 -0.5
v -0.4 0.4 -0.7
v -0.4 0.6 0.5
v -0.4 0.6 0.4
v -0.4 0.6 -0.5
v -0.4 0.6 -0.7
v -0.4 0.7 0.4
v -0.4 0.7 0.1
v -0.4 0.7 -0.2
v -0.4 0.7 -0.5
v -0.4 0.7 -0.7
v -0.4 0.9 0.5
v -0.4 0.9 0.4
v -0.4 0.9 0.2
v -0.4 0.9 -0.4
v -0.4 0.9 -0.5
v -0.4 0.9 -0.7
v -0.4 1 0.4
v -0.4 1 0.2
v -0.4 1 0.1
v -0.4 1 -0.2
v -0.4 1 -0.4
v -0.4 1 -0.5
v -0.4 1.2 0.2
v -0.4 1.2 0.1
v -0.4 1.2 -0.1
v -0.4 1.2 -0.2
v -0.4 1.2 -0.4
v -0.4 1.3 0.1
v -0.4 1.3 -0.1
v -0.4 1.3 -0.2
v -0.3 0 0.2
v -0.3 0 0.1
v -0.3 0 -0.2
v -0.3 0 -0.4
v -0.3 0.7 0.2
v -0.3 0.7 0.1
v -0.3 0.7 -0.2
v -0.3 0.7 -0.4
v -0.3 1 0.4
v -0.3 1 0.2
v -0.3 1 -0.4
v -0.3 1 -0.5
v -0.3 1.2 0.4
v -0.3 1.2 0.2
v -0.3 1.2 0.1
v -0.3 1.2 -0.2
v -0.3 1.2 -0.4
v -0.3 1.2 -0.5
v -0.3 1.3 0.2
v -0.3 1.3 0.1
v -0.3 1.3 -0.2
v -0.3 1.3 -0.4
v 0.2 0.4 0.4
v 0.2 0.4 0.2
v 0.2 0.4 -0.4
v 0.2 0.4 -0.5
v 0.2 0.6 0.4
v 0.2 0.6 -0.4
v 0.2 0.6 -0.5
v 0.2 0.7 0.4
v 0.2 0.7 0.2
v 0.2 0.7 -0.4
v 0.2 0.7 -0.5
v 0.3 0.4 0.2
v 0.3 0.4 0.1
v 0.3 0.4 -0.1
v 0.3 0.4 -0.4
v 0.3 0.6 0.1
v 0.3 0.6 -0.1
v 0.3 0.6 -0.4
v 0.3 0.7 0.2
v 0.3 0.7 -0.4
v -0.6 0.4 0.2
v -0.6 0.4 0.1
v -0.6 0.4 -0.2
v -0.6 0.4 -0.4
v -0.6 0.6 0.2
v -0.6 0.6 0.1
v -0.6 0.6 -0.2
v -0.6 0.6 -0.4
v -0.6 0.7 0.2
v -0.6 0.7 -0.4
v -0.4 0.4 0.4
v -0.4 0.4 0.2
v -0.4 0.4 -0.4
v -0.4 0.4 -0.5
v -0.4 0.6 0.4
v -0.4 0.6 -0.5
v -0.4 0.7 0.4
v -0.4 0.7 0.2
v -0.4 0.7 -0.4
v -0.4 0.7 -0.5
v 0 0 0.2
v 0 0 0.1
v 0 0 -0.2
v 0 0 -0.4
v 0 0.7 0.2
v 0 0.7 0.1
v 0 0.7 -0.2
v 0 0.7 -0.4
v 0 1 0.4
v 0 1 0.2
v 0 1 -0.4
v 0 1 -0.5
v 0 1.2 0.4
v 0 1.2 0.2
v 0 1.2 0.1
v 0 1.2 -0.2
v 0 1.2 -0.4
v 0 1.2 -0.5
v 0 1.3 0.2
v 0 1.3 0.1
v 0 1.3 -0.2
v 0 1.3 -0.4
v 0.2 0 0.1
v 0.2 0 -0.2
v 0.2 0.4 0.5
v 0.2 0.4 0.4
v 0.2 0.4 -0.5
v 0.2 0.4 -0.7
v 0.2 0.6 0.5
v 0.2 0.6 0.4
v 0.2 0.6 -0.5
v 0.2 0.7 0.5
v 0.2 0.7 0.4
v 0.2 0.7 0.1
v 0.2 0.7 -0.2
v 0.2 0.9 0.5
v 0.2 0.9 0.4
v 0.2 0.9 0.2
v 0.2 0.9 -0.4
v 0.2 0.9 -0.5
v 0.2 0.9 -0.7
v 0.2 1 0.4
v 0.2 1 0.2
v 0.2 1 0.1
v 0.2 1 -0.2
v 0.2 1 -0.4
v 0.2 1 -0.5
v 0.2 1.2 0.2
v 0.2 1.2 0.1
v 0.2 1.2 -0.1
v 0.2 1.2 -0.2
v 0.2 1.2 -0.4
v 0.2 1.3 0.1
v 0.2 1.3 -0.1
v 0.2 1.3 -0.2
v 0.3 0.4 0.4
v 0.3 0.4 0.2
v 0.3 0.4 -0.4
v 0.3 0.4 -0.5
v 0.3 0.6 -0.4
v 0.3 0.6 -0.5
v 0.3 0.7 0.2
v 0.3 0.7 -0.4
v 0.3 0.9 0.4
v 0.3 0.9 0.2
v 0.3 0.9 0.1
v 0.3 0.9 -0.2
v 0.3 0.9 -0.4
v 0.3 0.9 -0.5
v 0.3 1 0.2
v 0.3 1 0.1
v 0.3 1 -0.2
v 0.3 1 -0.4
v 0.3 1.2 0.1
v 0.3 1.2 -0.2
v 0.5 0.4 0.2
v 0.5 0.4 0.1
v 0.5 0.4 -0.1
v 0.5 0.4 -0.4
v 0.5 0.6 0.1
v 0.5 0.6 -0.1
v 0.5 0.7 0.2
v 0.5 0.7 0.1
v 0.5 0.7 -0.2
v 0.5 0.7 -0.4
v 0.5 0.9 0.2
v 0.5 0.9 0.1
v 0.5 0.9 -0.2
v 0.5 0.9 -0.4
v 0.5 1 0.1
v 0.5 1 -0.2
v -0.4 0.4 0.5
v -0.4 0.6 0.5
v -0.4 0.9 0.5
v -0.3 0.4 0.5
v -0.3 0.6 0.5
v -0.3 0.7 0.5
v -0.3 0.9 0.5
v -0.1 0.7 0.5
v -0.1 0.9 0.5
v 0 0.6 0.5
v 0 0.7 0.5
v 0.2 0.4 0.5
v 0.2 0.6 0.5
v 0.2 0.7 0.5
v 0.2 0.9 0.5
v -0.6 0.4 0.4
v -0.6 0.7 0.4
v -0.6 0.9 0.4
v -0.4 0.4 0.4
v -0.4 0.6 0.4
v -0.4 0.7 0.4
v -0.4 0.9 0.4
v -0.4 1 0.4
v -0.3 0.9 0.4
v -0.3 1 0.4
v -0.3 1.2 0.4
v -0.1 0.9 0.4
v -0.1 1 0.4
v -0.1 1.2 0.4
v 0 0.9 0.4
v 0 1 0.4
v 0 1.2 0.4
v 0.2 0.4 0.4
v 0.2 0.6 0.4
v 0.2 0.7 0.4
v 0.2 0.9 0.4
v 0.2 1 0.4
v 0.3 0.4 0.4
v 0.3 0.9 0.4
v -0.7 0.4 0.2
v -0.7 0.6 0.2
v -0.7 0.9 0.2
v -0.6 0.4 0.2
v -0.6 0.6 0.2
v -0.6 0.7 0.2
v -0.6 0.9 0.2
v -0.6 1 0.2
v -0.4 0.9 0.2
v -0.4 1 0.2
v -0.4 1.2 0.2
v -0.3 0 0.2
v -0.3 0.7 0.2
v -0.3 1 0.2
v -0.3 1.2 0.2
v -0.3 1.3 0.2
v -0.1 1.2 0.2
v 0 0 0.2
v 0 0.7 0.2
v 0 1 0.2
v 0 1.2 0.2
v 0 1.3 0.2
v 0.2 0.9 0.2
v 0.2 1 0.2
v 0.2 1.2 0.2
v 0.3 0.4 0.2
v 0.3 0.7 0.2
v 0.3 0.9 0.2
v 0.3 1 0.2
v 0.5 0.4 0.2
v 0.5 0.7 0.2
v 0.5 0.9 0.2
v -0.7 0.9 0.1
v -0.7 1 0.1
v -0.6 0.9 0.1
v -0.6 1 0.1
v -0.6 1.2 0.1
v -0.4 0 0.1
v -0.4 0.7 0.1
v -0.4 1 0.1
v -0.4 1.2 0.1
v -0.4 1.3 0.1
v -0.3 0 0.1
v -0.3 0.7 0.1
v -0.3 1.2 0.1
v -0.3 1.3 0.1
v 0 0 0.1
v 0 0.7 0.1
v 0 1.2 0.1
v 0 1.3 0.1
v 0.2 0 0.1
v 0.2 0.7 0.1
v 0.2 1 0.1
v 0.2 1.2 0.1
v 0.2 1.3 0.1
v 0.3 0.9 0.1
v 0.3 1 0.1
v 0.3 1.2 0.1
v 0.5 0.9 0.1
v 0.5 1 0.1
v -0.6 0.4 -0.4
v -0.6 0.6 -0.4
v -0.6 0.7 -0.4
v -0.4 0.4 -0.4
v -0.4 0.7 -0.4
v 0.2 0.4 -0.4
v 0.2 0.6 -0.4
v 0.2 0.7 -0.4
v 0.3 0.4 -0.4
v 0.3 0.6 -0.4
v 0.3 0.7 -0.4
v -0.4 0.4 -0.5
v -0.4 0.6 -0.5
v -0.4 0.7 -0.5
v -0.3 0.6 -0.5
v -0.3 0.7 -0.5
v -0.1 0.4 -0.5
v -0.1 0.6 -0.5
v 0 0.4 -0.5
v 0 0.6 -0.5
v 0.2 0.4 -0.5
v 0.2 0.6 -0.5
v 0.2 0.7 -0.5
v -0.4 0.4 0.4
v -0.4 0.6 0.4
v -0.4 0.7 0.4
v -0.3 0.4 0.4
v -0.3 0.6 0.4
v 0 0.6 0.4
v 0 0.7 0.4
v 0.2 0.4 0.4
v 0.2 0.6 0.4
v 0.2 0.7 0.4
v -0.6 0.4 0.2
v -0.6 0.6 0.2
v -0.6 0.7 0.2
v -0.4 0.4 0.2
v -0.4 0.7 0.2
v 0.2 0.4 0.2
v 0.2 0.7 0.2
v 0.3 0.4 0.2
v 0.3 0.7 0.2
v -0.7 0.9 -0.2
v -0.7 1 -0.2
v -0.6 0.9 -0.2
v -0.6 1 -0.2
v -0.6 1.2 -0.2
v -0.4 0 -0.2
v -0.4 0.7 -0.2
v -0.4 1 -0.2
v -0.4 1.2 -0.2
v -0.4 1.3 -0.2
v -0.3 0 -0.2
v -0.3 0.7 -0.2
v -0.3 1.2 -0.2
v -0.3 1.3 -0.2
v 0 0 -0.2
v 0 0.7 -0.2
v 0 1.2 -0.2
v 0 1.3 -0.2
v 0.2 0 -0.2
v 0.2 0.7 -0.2
v 0.2 1 -0.2
v 0.2 1.2 -0.2
v 0.2 1.3 -0.2
v 0.3 0.9 -0.2
v 0.3 1 -0.2
v 0.3 1.2 -0.2
v 0.5 0.9 -0.2
v 0.5 1 -0.2
v -0.7 0.4 -0.4
v -0.7 0.6 -0.4
v -0.7 0.9 -0.4
v -0.6 0.4 -0.4
v -0.6 0.6 -0.4
v -0.6 0.9 -0.4
v -0.6 1 -0.4
v -0.4 0.9 -0.4
v -0.4 1 -0.4
v -0.4 1.2 -0.4
v -0.3 0 -0.4
v -0.3 0.7 -0.4
v -0.3 1 -0.4
v -0.3 1.2 -0.4
v -0.3 1.3 -0.4
v 0 0 -0.4
v 0 0.7 -0.4
v 0 1 -0.4
v 0 1.2 -0.4
v 0 1.3 -0.4
v 0.2 0.9 -0.4
v 0.2 1 -0.4
v 0.2 1.2 -0.4
v 0.3 0.4 -0.4
v 0.3 0.6 -0.4
v 0.3 0.7 -0.4
v 0.3 0.9 -0.4
v 0.3 1 -0.4
v 0.5 0.4 -0.4
v 0.5 0.7 -0.4
v 0.5 0.9 -0.4
v -0.6 0.4 -0.5
v -0.6 0.9 -0.5
v -0.4 0.4 -0.5
v -0.4 0.6 -0.5
v -0.4 0.7 -0.5
v -0.4 0.9 -0.5
v -0.4 1 -0.5
v -0.3 0.9 -0.5
v -0.3 1 -0.5
v -0.3 1.2 -0.5
v -0.1 0.9 -0.5
v -0.1 1 -0.5
v 0 0.9 -0.5
v 0 1 -0.5
v 0 1.2 -0.5
v 0.2 0.4 -0.5
v 0.2 0.6 -0.5
v 0.2 0.9 -0.5
v 0.2 1 -0.5
v 0.3 0.4 -0.5
v 0.3 0.6 -0.5
v 0.3 0.9 -0.5
v -0.4 0.4 -0.7
v -0.4 0.6 -0.7
v -0.4 0.7 -0.7
v -0.4 0.9 -0.7
v -0.3 0.6 -0.7
v -0.3 0.7 -0.7
v -0.1 0.4 -0.7
v -0.1 0.6 -0.7
v -0.1 0.7 -0.7
v -0.1 0.9 -0.7
v 0 0.4 -0.7
v 0 0.6 -0.7
v 0 0.7 -0.7
v 0 0.9 -0.7
v 0.2 0.4 -0.7
v 0.2 0.9 -0.7
v -0.3 0 0.2
v 0 0 0.2
v -0.4 0 0.1
v -0.3 0 0.1
v 0 0 0.1
v 0.2 0 0.1
v -0.4 0 -0.2
v -0.3 0 -0.2
v 0 0 -0.2
v 0.2 0 -0.2
v -0.3 0 -0.4
v 0 0 -0.4
v -0.4 0.4 0.5
v -0.3 0.4 0.5
v 0.2 0.4 0.5
v -0.6 0.4 0.4
v -0.4 0.4 0.4
v -0.3 0.4 0.4
v 0.2 0.4 0.4
v 0.3 0.4 0.4
v -0.7 0.4 0.2
v -0.6 0.4 0.2
v -0.4 0.4 0.2
v 0.2 0.4 0.2
v 0.3 0.4 0.2
v 0.5 0.4 0.2
v -0.7 0.4 0.1
v -0.6 0.4 0.1
v 0.3 0.4 0.1
v 0.5 0.4 0.1
v 0.3 0.4 -0.1
v 0.5 0.4 -0.1
v -0.7 0.4 -0.2
v -0.6 0.4 -0.2
v -0.7 0.4 -0.4
v -0.6 0.4 -0.4
v -0.4 0.4 -0.4
v 0.2 0.4 -0.4
v 0.3 0.4 -0.4
v 0.5 0.4 -0.4
v -0.6 0.4 -0.5
v -0.4 0.4 -0.5
v -0.1 0.4 -0.5
v 0 0.4 -0.5
v 0.2 0.4 -0.5
v 0.3 0.4 -0.5
v -0.4 0.4 -0.7
v -0.1 0.4 -0.7
v 0 0.4 -0.7
v 0.2 0.4 -0.7
v -0.4 0.7 0.4
v 0 0.7 0.4
v 0.2 0.7 0.4
v -0.6 0.7 0.2
v -0.4 0.7 0.2
v -0.3 0.7 0.2
v 0 0.7 0.2
v 0.2 0.7 0.2
v 0.3 0.7 0.2
v -0.4 0.7 0.1
v -0.3 0.7 0.1
v 0 0.7 0.1
v 0.2 0.7 0.1
v -0.4 0.7 -0.2
v -0.3 0.7 -0.2
v 0 0.7 -0.2
v 0.2 0.7 -0.2
v -0.6 0.7 -0.4
v -0.4 0.7 -0.4
v -0.3 0.7 -0.4
v 0 0.7 -0.4
v 0.2 0.7 -0.4
v 0.3 0.7 -0.4
v -0.4 0.7 -0.5
v -0.3 0.7 -0.5
v 0.2 0.7 -0.5
v -0.4 0.9 0.5
v -0.3 0.9 0.5
v -0.1 0.9 0.5
v 0.2 0.9 0.5
v -0.6 0.9 0.4
v -0.4 0.9 0.4
v -0.3 0.9 0.4
v -0.1 0.9 0.4
v 0 0.9 0.4
v 0.2 0.9 0.4
v 0.3 0.9 0.4
v -0.7 0.9 0.2
v -0.6 0.9 0.2
v -0.4 0.9 0.2
v 0.2 0.9 0.2
v 0.3 0.9 0.2
v 0.5 0.9 0.2
v -0.7 0.9 0.1
v -0.6 0.9 0.1
v 0.3 0.9 0.1
v 0.5 0.9 0.1
v -0.7 0.9 -0.2
v -0.6 0.9 -0.2
v 0.3 0.9 -0.2
v 0.5 0.9 -0.2
v -0.7 0.9 -0.4
v -0.6 0.9 -0.4
v -0.4 0.9 -0.4
v 0.2 0.9 -0.4
v 0.3 0.9 -0.4
v 0.5 0.9 -0.4
v -0.6 0.9 -0.5
v -0.4 0.9 -0.5
v -0.3 0.9 -0.5
v -0.1 0.9 -0.5
v 0 0.9 -0.5
v 0.2 0.9 -0.5
v 0.3 0.9 -0.5
v -0.4 0.9 -0.7
v -0.1 0.9 -0.7
v 0 0.9 -0.7
v 0.2 0.9 -0.7
v -0.4 1 0.4
v -0.3 1 0.4
v 0 1 0.4
v 0.2 1 0.4
v -0.6 1 0.2
v -0.4 1 0.2
v -0.3 1 0.2
v 0 1 0.2
v 0.2 1 0.2
v 0.3 1 0.2
v -0.7 1 0.1
v -0.6 1 0.1
v -0.4 1 0.1
v 0.2 1 0.1
v 0.3 1 0.1
v 0.5 1 0.1
v -0.7 1 -0.2
v -0.6 1 -0.2
v -0.4 1 -0.2
v 0.2 1 -0.2
v 0.3 1 -0.2
v 0.5 1 -0.2
v -0.6 1 -0.4
v -0.4 1 -0.4
v -0.3 1 -0.4
v 0 1 -0.4
v 0.2 1 -0.4
v 0.3 1 -0.4
v -0.4 1 -0.5
v -0.3 1 -0.5
v 0 1 -0.5
v 0.2 1 -0.5
v -0.3 1.2 0.4
v -0.1 1.2 0.4
v 0 1.2 0.4
v -0.4 1.2 0.2
v -0.3 1.2 0.2
v -0.1 1.2 0.2
v 0 1.2 0.2
v 0.2 1.2 0.2
v -0.6 1.2 0.1
v -0.4 1.2 0.1
v -0.3 1.2 0.1
v 0 1.2 0.1
v 0.2 1.2 0.1
v 0.3 1.2 0.1
v -0.4 1.2 -0.1
v 0.2 1.2 -0.1
v -0.6 1.2 -0.2
v -0.4 1.2 -0.2
v -0.3 1.2 -0.2
v 0 1.2 -0.2
v 0.2 1.2 -0.2
v 0.3 1.2 -0.2
v -0.4 1.2 -0.4
v -0.3 1.2 -0.4
v 0 1.2 -0.4
v 0.2 1.2 -0.4
v -0.3 1.2 -0.5
v 0 1.2 -0.5
v -0.3 1.3 0.2
v 0 1.3 0.2
v -0.4 1.3 0.1
v -0.3 1.3 0.1
v 0 1.3 0.1
v 0.2 1.3 0.1
v -0.4 1.3 -0.1
v -0.3 1.3 -0.1
v -0.1 1.3 -0.1
v 0 1.3 -0.1
v 0.2 1.3 -0.1
v -0.4 1.3 -0.2
v -0.3 1.3 -0.2
v -0.1 1.3 -0.2
v 0 1.3 -0.2
v 0.2 1.3 -0.2
v -0.3 1.3 -0.4
v 0 1.3 -0.4

# faces
f 5/1/1 2/1/1 1/1/1
f 6/3/1 3/3/1 2/3/1
f 6/1/1 2/1/1 5/1/1
f 7/1/1 4/1/1 3/1/1
f 7/3/1 3/3/1 6/3/1
f 8/1/1 4/1/1 7/1/1
f 9/3/1 6/3/1 5/3/1
f 9/3/1 7/3/1 6/3/1
f 9/3/1 8/3/1 7/3/1
f 10/3/1 8/3/1 9/3/1
f 11/3/1 9/3/1 5/3/1
f 12/3/1 9/3/1 11/3/1
f 13/1/1 10/1/1 9/1/1
f 13/3/1 9/3/1 12/3/1
f 14/3/1 8/3/1 10/3/1
f 14/1/1 10/1/1 13/1/1
f 15/3/1 8/3/1 14/3/1
f 16/3/1 13/3/1 12/3/1
f 16/3/1 14/3/1 13/3/1
f 17/3/1 14/3/1 16/3/1
f 22/3/1 19/3/1 18/3/1
f 23/3/1 21/3/1 20/3/1
f 24/3/1 22/3/1 18/3/1
f 25/3/1 22/3/1 24/3/1
f 26/1/1 25/1/1 24/1/1
f 27/1/1 25/1/1 26/1/1
f 30/3/1 21/3/1 23/3/1
f 31/3/1 21/3/1 30/3/1
f 32/3/1 28/3/1 27/3/1
f 33/3/1 28/3/1 32/3/1
f 34/1/1 30/1/1 29/1/1
f 35/1/1 30/1/1 34/1/1
f 36/3/1 34/3/1 33/3/1
f 37/3/1 34/3/1 36/3/1
f 44/1/1 41/1/1 40/1/1
f 45/1/1 41/1/1 44/1/1
f 46/3/1 43/3/1 42/3/1
f 47/3/1 43/3/1 46/3/1
f 48/3/1 45/3/1 44/3/1
f 49/2/1 39/2/1 38/2/1
f 50/2/1 39/2/1 49/2/1
f 51/1/1 47/1/1 46/1/1
f 52/1/1 47/1/1 51/1/1
f 53/3/1 48/3/1 44/3/1
f 54/3/1 48/3/1 53/3/1
f 57/3/1 52/3/1 51/3/1
f 58/3/1 52/3/1 57/3/1
f 59/3/1 55/3/1 54/3/1
f 60/3/1 55/3/1 59/3/1
f 63/3/1 57/3/1 56/3/1
f 64/3/1 57/3/1 63/3/1
f 65/3/1 61/3/1 60/3/1
f 66/3/1 61/3/1 65/3/1
f 68/3/1 63/3/1 62/3/1
f 69/3/1 63/3/1 68/3/1
f 70/1/1 67/1/1 66/1/1
f 71/3/1 68/3/1 67/3/1
f 71/1/1 67/1/1 70/1/1
f 72/3/1 68/3/1 71/3/1
f 77/2/1 74/2/1 73/2/1
f 78/2/1 74/2/1 77/2/1
f 79/2/1 76/2/1 75/2/1
f 80/2/1 76/2/1 79/2/1
f 85/1/1 82/1/1 81/1/1
f 86/1/1 82/1/1 85/1/1
f 89/3/1 84/3/1 83/3/1
f 90/3/1 84/3/1 89/3/1
f 91/3/1 87/3/1 86/3/1
f 92/3/1 87/3/1 91/3/1
f 93/3/1 89/3/1 88/3/1
f 94/3/1 89/3/1 93/3/1
f 99/3/1 96/3/1 95/3/1
f 100/1/1 98/1/1 97/1/1
f 101/1/1 98/1/1 100/1/1
f 102/3/1 96/3/1 99/3/1
f 103/3/1 96/3/1 102/3/1
f 104/3/1 101/3/1 100/3/1
f 105/3/1 101/3/1 104/3/1
f 110/3/1 107/3/1 106/3/1
f 110/1/1 108/1/1 107/1/1
f 111/3/1 109/3/1 108/3/1
f 111/1/1 108/1/1 110/1/1
f 112/3/1 109/3/1 111/3/1
f 113/3/1 110/3/1 106/3/1
f 113/3/1 111/3/1 110/3/1
f 113/3/1 112/3/1 111/3/1
f 114/3/1 112/3/1 113/3/1
f 115/1/2 116/1/2 119/1/2
f 116/3/2 117/3/2 120/3/2
f 119/1/2 116/1/2 120/1/2
f 117/1/2 118/1/2 121/1/2
f 120/3/2 117/3/2 121/3/2
f 121/1/2 118/1/2 122/1/2
f 119/3/2 120/3/2 123/3/2
f 120/3/2 121/3/2 123/3/2
f 121/3/2 122/3/2 123/3/2
f 123/3/2 122/3/2 124/3/2
f 125/3/2 126/3/2 129/3/2
f 127/3/2 128/3/2 130/3/2
f 129/3/2 126/3/2 131/3/2
f 131/3/2 126/3/2 132/3/2
f 127/3/2 130/3/2 133/3/2
f 133/3/2 130/3/2 134/3/2
f 135/2/2 136/2/2 139/2/2
f 139/2/2 136/2/2 140/2/2
f 137/2/2 138/2/2 141/2/2
f 141/2/2 138/2/2 142/2/2
f 143/3/2 144/3/2 147/3/2
f 147/3/2 144/3/2 148/3/2
f 145/3/2 146/3/2 151/3/2
f 151/3/2 146/3/2 152/3/2
f 148/3/2 149/3/2 153/3/2
f 153/3/2 149/3/2 154/3/2
f 150/3/2 151/3/2 155/3/2
f 155/3/2 151/3/2 156/3/2
f 159/3/2 160/3/2 163/3/2
f 163/3/2 160/3/2 164/3/2
f 161/3/2 162/3/2 165/3/2
f 163/1/2 164/1/2 166/1/2
f 166/1/2 164/1/2 167/1/2
f 157/2/2 158/2/2 168/2/2
f 168/2/2 158/2/2 169/2/2
f 166/3/2 167/3/2 170/3/2
f 170/3/2 167/3/2 171/3/2
f 165/3/2 162/3/2 174/3/2
f 174/3/2 162/3/2 175/3/2
f 171/1/2 172/1/2 176/1/2
f 176/1/2 172/1/2 177/1/2
f 173/3/2 174/3/2 180/3/2
f 180/3/2 174/3/2 181/3/2
f 177/3/2 178/3/2 182/3/2
f 182/3/2 178/3/2 183/3/2
f 179/1/2 180/1/2 185/1/2
f 185/1/2 180/1/2 186/1/2
f 183/1/2 184/1/2 187/1/2
f 184/3/2 185/3/2 188/3/2
f 187/1/2 184/1/2 188/1/2
f 188/3/2 185/3/2 189/3/2
f 192/1/2 193/1/2 194/1/2
f 194/1/2 193/1/2 195/1/2
f 190/3/2 191/3/2 196/3/2
f 194/3/2 195/3/2 197/3/2
f 190/3/2 196/3/2 198/3/2
f 198/3/2 196/3/2 199/3/2
f 197/3/2 195/3/2 202/3/2
f 202/3/2 195/3/2 203/3/2
f 199/3/2 200/3/2 204/3/2
f 204/3/2 200/3/2 205/3/2
f 201/3/2 202/3/2 206/3/2
f 206/3/2 202/3/2 207/3/2
f 205/3/2 206/3/2 208/3/2
f 208/3/2 206/3/2 209/3/2
f 210/3/2 211/3/2 214/3/2
f 211/1/2 212/1/2 214/1/2
f 212/3/2 213/3/2 215/3/2
f 214/1/2 212/1/2 215/1/2
f 210/3/2 214/3/2 216/3/2
f 214/3/2 215/3/2 216/3/2
f 216/3/2 215/3/2 217/3/2
f 215/3/2 213/3/2 218/3/2
f 217/3/2 215/3/2 218/3/2
f 218/3/2 213/3/2 219/3/2
f 216/1/2 217/1/2 220/1/2
f 217/3/2 218/3/2 221/3/2
f 220/1/2 217/1/2 221/1/2
f 218/1/2 219/1/2 222/1/2
f 221/3/2 218/3/2 222/3/2
f 222/1/2 219/1/2 223/1/2
f 221/3/2 222/3/2 224/3/2
f 224/3/2 222/3/2 225/3/2
f 229/1/3 227/1/3 226/1/3
f 230/3/3 228/3/3 227/3/3
f 230/1/3 227/1/3 229/1/3
f 231/3/3 228/3/3 230/3/3
f 232/3/3 228/3/3 231/3/3
f 233/3/3 230/3/3 229/3/3
f 233/3/3 231/3/3 230/3/3
f 233/1/3 232/1/3 231/1/3
f 234/1/3 232/1/3 233/1/3
f 235/3/3 233/3/3 229/3/3
f 235/3/3 234/3/3 233/3/3
f 236/3/3 234/3/3 235/3/3
f 237/3/3 235/3/3 229/3/3
f 238/1/3 236/1/3 235/1/3
f 238/3/3 235/3/3 237/3/3
f 239/3/3 234/3/3 236/3/3
f 239/1/3 236/1/3 238/1/3
f 240/3/3 234/3/3 239/3/3
f 244/3/3 242/3/3 241/3/3
f 245/3/3 242/3/3 244/3/3
f 246/1/3 243/1/3 242/1/3
f 246/3/3 242/3/3 245/3/3
f 247/1/3 243/1/3 246/1/3
f 249/3/3 248/3/3 247/3/3
f 250/3/3 248/3/3 249/3/3
f 252/3/3 250/3/3 249/3/3
f 253/1/3 251/1/3 250/1/3
f 253/3/3 250/3/3 252/3/3
f 254/1/3 251/1/3 253/1/3
f 255/3/3 253/3/3 252/3/3
f 255/3/3 254/3/3 253/3/3
f 256/3/3 254/3/3 255/3/3
f 257/3/3 254/3/3 256/3/3
f 261/1/3 256/1/3 255/1/3
f 262/1/3 256/1/3 261/1/3
f 263/3/3 260/3/3 259/3/3
f 263/3/3 259/3/3 258/3/3
f 263/3/3 261/3/3 260/3/3
f 264/3/3 261/3/3 263/3/3
f 268/1/3 266/1/3 265/1/3
f 269/3/3 267/3/3 266/3/3
f 269/1/3 266/1/3 268/1/3
f 270/3/3 267/3/3 269/3/3
f 271/3/3 267/3/3 270/3/3
f 273/3/3 272/3/3 271/3/3
f 274/3/3 272/3/3 273/3/3
f 278/3/3 275/3/3 274/3/3
f 279/3/3 275/3/3 278/3/3
f 281/3/3 280/3/3 279/3/3
f 282/2/3 277/2/3 276/2/3
f 283/2/3 277/2/3 282/2/3
f 285/3/3 280/3/3 281/3/3
f 286/3/3 280/3/3 285/3/3
f 288/3/3 285/3/3 284/3/3
f 289/3/3 285/3/3 288/3/3
f 292/3/3 288/3/3 287/3/3
f 293/3/3 288/3/3 292/3/3
f 294/3/3 291/3/3 290/3/3
f 295/1/3 292/1/3 291/1/3
f 295/3/3 291/3/3 294/3/3
f 296/1/3 292/1/3 295/1/3
f 299/3/3 298/3/3 297/3/3
f 300/3/3 298/3/3 299/3/3
f 304/3/3 301/3/3 300/3/3
f 305/3/3 301/3/3 304/3/3
f 307/2/3 303/2/3 302/2/3
f 308/2/3 303/2/3 307/2/3
f 309/1/3 306/1/3 305/1/3
f 310/1/3 306/1/3 309/1/3
f 315/2/3 312/2/3 311/2/3
f 316/2/3 312/2/3 315/2/3
f 318/1/3 314/1/3 313/1/3
f 319/1/3 314/1/3 318/1/3
f 321/3/3 318/3/3 317/3/3
f 322/3/3 318/3/3 321/3/3
f 323/3/3 321/3/3 320/3/3
f 324/3/3 321/3/3 323/3/3
f 328/3/3 326/3/3 325/3/3
f 328/3/3 327/3/3 326/3/3
f 329/3/3 327/3/3 328/3/3
f 333/1/3 331/1/3 330/1/3
f 334/3/3 332/3/3 331/3/3
f 334/1/3 331/1/3 333/1/3
f 335/3/3 332/3/3 334/3/3
f 339/3/3 337/3/3 336/3/3
f 339/1/3 338/1/3 337/1/3
f 340/1/3 338/1/3 339/1/3
f 341/3/3 339/3/3 336/3/3
f 341/3/3 340/3/3 339/3/3
f 342/3/3 340/3/3 341/3/3
f 343/1/3 342/1/3 341/1/3
f 344/3/3 340/3/3 342/3/3
f 344/1/3 342/1/3 343/1/3
f 345/3/3 344/3/3 343/3/3
f 346/3/3 340/3/3 344/3/3
f 346/3/3 344/3/3 345/3/3
f 347/3/3 340/3/3 346/3/3
f 348/1/4 349/1/4 351/1/4
f 349/3/4 350/3/4 352/3/4
f 351/1/4 349/1/4 352/1/4
f 351/3/4 352/3/4 353/3/4
f 352/3/4 350/3/4 353/3/4
f 353/3/4 350/3/4 354/3/4
f 351/3/4 353/3/4 355/3/4
f 353/1/4 354/1/4 356/1/4
f 355/3/4 353/3/4 356/3/4
f 356/1/4 354/1/4 357/1/4
f 358/3/4 359/3/4 361/3/4
f 359/3/4 360/3/4 361/3/4
f 361/3/4 360/3/4 362/3/4
f 363/3/4 364/3/4 365/3/4
f 365/3/4 364/3/4 366/3/4
f 367/3/4 368/3/4 369/3/4
f 369/3/4 368/3/4 370/3/4
f 370/3/4 371/3/4 374/3/4
f 374/3/4 371/3/4 375/3/4
f 372/2/4 373/2/4 377/2/4
f 377/2/4 373/2/4 378/2/4
f 375/3/4 376/3/4 379/3/4
f 379/3/4 376/3/4 380/3/4
f 381/2/4 382/2/4 385/2/4
f 385/2/4 382/2/4 386/2/4
f 383/3/4 384/3/4 388/3/4
f 388/3/4 384/3/4 389/3/4
f 387/3/4 388/3/4 391/3/4
f 391/3/4 388/3/4 392/3/4
f 390/3/4 391/3/4 393/3/4
f 393/3/4 391/3/4 394/3/4
f 395/1/4 396/1/4 398/1/4
f 396/3/4 397/3/4 399/3/4
f 398/1/4 396/1/4 399/1/4
f 399/3/4 397/3/4 400/3/4
f 400/1/4 401/1/4 402/1/4
f 402/1/4 401/1/4 403/1/4
f 403/3/4 404/3/4 407/3/4
f 407/3/4 404/3/4 408/3/4
f 405/2/4 406/2/4 410/2/4
f 410/2/4 406/2/4 411/2/4
f 408/3/4 409/3/4 413/3/4
f 413/3/4 409/3/4 414/3/4
f 412/1/4 413/1/4 416/1/4
f 416/1/4 413/1/4 417/1/4
f 415/3/4 416/3/4 421/3/4
f 421/3/4 416/3/4 422/3/4
f 419/3/4 420/3/4 423/3/4
f 418/3/4 419/3/4 423/3/4
f 420/1/4 421/1/4 424/1/4
f 423/3/4 420/3/4 424/3/4
f 424/1/4 421/1/4 425/1/4
f 426/3/4 427/3/4 428/3/4
f 428/3/4 427/3/4 429/3/4
f 429/3/4 427/3/4 430/3/4
f 430/3/4 427/3/4 431/3/4
f 431/3/4 432/3/4 433/3/4
f 433/3/4 432/3/4 434/3/4
f 433/1/4 434/1/4 436/1/4
f 434/3/4 435/3/4 437/3/4
f 436/1/4 434/1/4 437/1/4
f 436/3/4 437/3/4 438/3/4
f 437/3/4 435/3/4 439/3/4
f 438/3/4 437/3/4 439/3/4
f 439/3/4 435/3/4 440/3/4
f 438/3/4 439/3/4 443/3/4
f 443/3/4 439/3/4 444/3/4
f 441/1/4 442/1/4 445/1/4
f 442/3/4 443/3/4 446/3/4
f 445/1/4 442/1/4 446/1/4
f 446/3/4 443/3/4 447/3/4
f 448/3/4 449/3/4 452/3/4
f 449/1/4 450/1/4 452/1/4
f 450/3/4 451/3/4 453/3/4
f 452/1/4 450/1/4 453/1/4
f 448/3/4 452/3/4 454/3/4
f 452/3/4 453/3/4 454/3/4
f 454/3/4 453/3/4 455/3/4
f 453/3/4 451/3/4 456/3/4
f 455/3/4 453/3/4 456/3/4
f 456/3/4 451/3/4 457/3/4
f 454/1/4 455/1/4 458/1/4
f 455/3/4 456/3/4 459/3/4
f 458/1/4 455/1/4 459/1/4
f 456/1/4 457/1/4 460/1/4
f 459/3/4 456/3/4 460/3/4
f 460/1/4 457/1/4 461/1/4
f 458/3/4 459/3/4 462/3/4
f 459/3/4 460/3/4 462/3/4
f 460/3/4 461/3/4 462/3/4
f 462/3/4 461/3/4 463/3/4
f 467/2/5 465/2/5 464/2/5
f 468/2/5 465/2/5 467/2/5
f 470/2/5 467/2/5 466/2/5
f 470/2/5 469/2/5 468/2/5
f 470/2/5 468/2/5 467/2/5
f 471/2/5 469/2/5 470/2/5
f 472/2/5 469/2/5 471/2/5
f 473/2/5 469/2/5 472/2/5
f 474/2/5 472/2/5 471/2/5
f 475/2/5 472/2/5 474/2/5
f 480/1/5 477/1/5 476/1/5
f 481/3/5 478/3/5 477/3/5
f 481/1/5 477/1/5 480/1/5
f 482/3/5 478/3/5 481/3/5
f 485/3/5 480/3/5 479/3/5
f 486/3/5 480/3/5 485/3/5
f 487/3/5 483/3/5 482/3/5
f 488/3/5 483/3/5 487/3/5
f 490/1/5 485/1/5 484/1/5
f 491/1/5 485/1/5 490/1/5
f 492/3/5 489/3/5 488/3/5
f 493/3/5 489/3/5 492/3/5
f 494/1/5 493/1/5 492/1/5
f 495/1/5 493/1/5 494/1/5
f 496/3/5 491/3/5 490/3/5
f 497/3/5 491/3/5 496/3/5
f 498/1/5 497/1/5 496/1/5
f 499/1/5 497/1/5 498/1/5
f 502/3/5 495/3/5 494/3/5
f 503/3/5 495/3/5 502/3/5
f 504/3/5 500/3/5 499/3/5
f 505/3/5 500/3/5 504/3/5
f 508/1/5 502/1/5 501/1/5
f 509/1/5 502/1/5 508/1/5
f 510/3/5 506/3/5 505/3/5
f 511/1/5 507/1/5 506/1/5
f 511/3/5 506/3/5 510/3/5
f 512/3/5 508/3/5 507/3/5
f 512/1/5 507/1/5 511/1/5
f 513/3/5 508/3/5 512/3/5
f 518/2/5 515/2/5 514/2/5
f 518/2/5 516/2/5 515/2/5
f 519/2/5 516/2/5 518/2/5
f 520/2/5 516/2/5 519/2/5
f 521/2/5 516/2/5 520/2/5
f 523/2/5 518/2/5 517/2/5
f 523/2/5 519/2/5 518/2/5
f 524/2/5 519/2/5 523/2/5
f 525/2/5 522/2/5 521/2/5
f 525/2/5 521/2/5 520/2/5
f 526/2/5 522/2/5 525/2/5
f 527/2/5 523/2/5 517/2/5
f 530/2/5 522/2/5 526/2/5
f 531/2/5 528/2/5 527/2/5
f 531/2/5 527/2/5 517/2/5
f 532/2/5 528/2/5 531/2/5
f 533/2/5 528/2/5 532/2/5
f 534/2/5 530/2/5 529/2/5
f 535/2/5 522/2/5 530/2/5
f 535/2/5 530/2/5 534/2/5
f 536/2/5 522/2/5 535/2/5
f 537/2/5 533/2/5 532/2/5
f 537/2/5 534/2/5 533/2/5
f 537/2/5 535/2/5 534/2/5
f 538/2/5 535/2/5 537/2/5
f 539/2/5 535/2/5 538/2/5
f 540/3/6 541/3/6 545/3/6
f 541/1/6 542/1/6 546/1/6
f 545/3/6 541/3/6 546/3/6
f 542/3/6 543/3/6 547/3/6
f 546/1/6 542/1/6 547/1/6
f 547/3/6 543/3/6 548/3/6
f 548/3/6 543/3/6 549/3/6
f 544/1/6 545/1/6 552/1/6
f 552/1/6 545/1/6 553/1/6
f 549/3/6 550/3/6 554/3/6
f 554/3/6 550/3/6 555/3/6
f 551/3/6 552/3/6 557/3/6
f 557/3/6 552/3/6 558/3/6
f 555/1/6 556/1/6 559/1/6
f 559/1/6 556/1/6 560/1/6
f 561/3/6 562/3/6 565/3/6
f 565/3/6 562/3/6 566/3/6
f 563/1/6 564/1/6 569/1/6
f 569/1/6 564/1/6 570/1/6
f 566/3/6 567/3/6 571/3/6
f 571/3/6 567/3/6 572/3/6
f 568/3/6 569/3/6 576/3/6
f 576/3/6 569/3/6 577/3/6
f 572/3/6 573/3/6 578/3/6
f 573/3/6 574/3/6 578/3/6
f 574/1/6 575/1/6 579/1/6
f 578/3/6 574/3/6 579/3/6
f 575/3/6 576/3/6 580/3/6
f 579/1/6 575/1/6 580/1/6
f 580/3/6 576/3/6 581/3/6
f 582/3/6 583/3/6 587/3/6
f 587/3/6 583/3/6 588/3/6
f 584/1/6 585/1/6 589/1/6
f 589/1/6 585/1/6 590/1/6
f 586/3/6 587/3/6 593/3/6
f 593/3/6 587/3/6 594/3/6
f 590/3/6 591/3/6 595/3/6
f 595/3/6 591/3/6 596/3/6
f 592/3/6 593/3/6 598/3/6
f 598/3/6 593/3/6 599/3/6
f 596/3/6 597/3/6 602/3/6
f 602/3/6 597/3/6 603/3/6
f 599/1/6 600/1/6 604/1/6
f 604/1/6 600/1/6 605/1/6
f 601/3/6 602/3/6 608/3/6
f 608/3/6 602/3/6 609/3/6
f 605/3/6 606/3/6 610/3/6
f 610/3/6 606/3/6 611/3/6
f 607/3/6 608/3/6 612/3/6
f 612/3/6 608/3/6 613/3/6
f 614/1/6 615/1/6 618/1/6
f 615/3/6 616/3/6 619/3/6
f 618/1/6 615/1/6 619/1/6
f 619/3/6 616/3/6 620/3/6
f 617/3/6 618/3/6 623/3/6
f 623/3/6 618/3/6 624/3/6
f 620/3/6 621/3/6 625/3/6
f 625/3/6 621/3/6 626/3/6
f 622/3/6 623/3/6 628/3/6
f 626/3/6 627/3/6 629/3/6
f 622/3/6 628/3/6 630/3/6
f 630/3/6 628/3/6 631/3/6
f 629/3/6 627/3/6 634/3/6
f 634/3/6 627/3/6 635/3/6
f 631/3/6 632/3/6 636/3/6
f 636/3/6 632/3/6 637/3/6
f 633/1/6 634/1/6 638/1/6
f 638/1/6 634/1/6 639/1/6
f 637/3/6 638/3/6 640/3/6
f 640/3/6 638/3/6 641/3/6
f 642/3/6 643/3/6 645/3/6
f 645/3/6 643/3/6 646/3/6
f 644/1/6 645/1/6 648/1/6
f 645/3/6 646/3/6 649/3/6
f 648/1/6 645/1/6 649/1/6
f 649/3/6 646/3/6 650/3/6
f 646/1/6 647/1/6 651/1/6
f 650/3/6 646/3/6 651/3/6
f 651/1/6 647/1/6 652/1/6
f 648/3/6 649/3/6 653/3/6
f 649/1/6 650/1/6 654/1/6
f 653/3/6 649/3/6 654/3/6
f 650/3/6 651/3/6 655/3/6
f 654/1/6 650/1/6 655/1/6
f 651/3/6 652/3/6 655/3/6
f 655/3/6 652/3/6 656/3/6
f 656/3/6 652/3/6 657/3/6
f 654/3/6 655/3/6 658/3/6
f 655/3/6 656/3/6 658/3/6
f 658/3/6 656/3/6 659/3/6
