# MagicaVoxel @ Ephtracy

# group
o 

# material
mtllib Props-10.mtl
usemtl palette

# normals
vn -1 0 0
vn 1 0 0
vn 0 0 1
vn 0 0 -1
vn 0 -1 0
vn 0 1 0

# texcoords
vt 0.724609 0.5
vt 0.728516 0.5
vt 0.732422 0.5

# verts
v -0.6 0.4 0.2
v -0.6 0.4 -0.2
v -0.6 0.6 0.2
v -0.6 0.6 -0.2
v -0.5 0.3 0.1
v -0.5 0.3 -0.1
v -0.5 0.4 0.4
v -0.5 0.4 0.2
v -0.5 0.4 0.1
v -0.5 0.4 -0.1
v -0.5 0.4 -0.2
v -0.5 0.4 -0.4
v -0.5 0.6 0.4
v -0.5 0.6 0.2
v -0.5 0.6 -0.2
v -0.5 0.6 -0.4
v -0.5 0.7 0.2
v -0.5 0.7 -0.2
v -0.3 0 0.1
v -0.3 0 -0.1
v -0.3 0.3 0.2
v -0.3 0.3 0.1
v -0.3 0.3 -0.1
v -0.3 0.3 -0.2
v -0.3 0.4 0.5
v -0.3 0.4 0.4
v -0.3 0.4 0.2
v -0.3 0.4 0.1
v -0.3 0.4 -0.1
v -0.3 0.4 -0.2
v -0.3 0.4 -0.4
v -0.3 0.4 -0.5
v -0.3 0.6 0.5
v -0.3 0.6 0.4
v -0.3 0.6 0.2
v -0.3 0.6 -0.2
v -0.3 0.6 -0.4
v -0.3 0.6 -0.5
v -0.3 0.7 0.4
v -0.3 0.7 0.2
v -0.3 0.7 -0.2
v -0.3 0.7 -0.4
v -0.2 0 0.2
v -0.2 0 0.1
v -0.2 0 -0.1
v -0.2 0 -0.2
v -0.2 0.3 0.4
v -0.2 0.3 0.2
v -0.2 0.3 0.1
v -0.2 0.3 -0.1
v -0.2 0.3 -0.2
v -0.2 0.3 -0.4
v -0.2 0.4 0.4
v -0.2 0.4 0.2
v -0.2 0.4 -0.2
v -0.2 0.4 -0.4
v -5.96046e-008 0 0.2
v -5.96046e-008 0 0.1
v -5.96046e-008 0 -0.1
v -5.96046e-008 0 -0.2
v -5.96046e-008 0.3 0.4
v -5.96046e-008 0.3 0.2
v -5.96046e-008 0.3 0.1
v -5.96046e-008 0.3 -0.1
v -5.96046e-008 0.3 -0.2
v -5.96046e-008 0.3 -0.4
v -5.96046e-008 0.4 0.4
v -5.96046e-008 0.4 0.2
v -5.96046e-008 0.4 -0.2
v -5.96046e-008 0.4 -0.4
v 0.1 0 0.1
v 0.1 0 -0.1
v 0.1 0.3 0.2
v 0.1 0.3 0.1
v 0.1 0.3 -0.1
v 0.1 0.3 -0.2
v 0.1 0.4 0.5
v 0.1 0.4 0.4
v 0.1 0.4 0.2
v 0.1 0.4 0.1
v 0.1 0.4 -0.1
v 0.1 0.4 -0.2
v 0.1 0.4 -0.4
v 0.1 0.4 -0.5
v 0.1 0.6 0.5
v 0.1 0.6 0.4
v 0.1 0.6 0.2
v 0.1 0.6 -0.2
v 0.1 0.6 -0.4
v 0.1 0.6 -0.5
v 0.1 0.7 0.4
v 0.1 0.7 0.2
v 0.1 0.7 -0.2
v 0.1 0.7 -0.4
v 0.3 0.3 0.1
v 0.3 0.3 -0.1
v 0.3 0.4 0.4
v 0.3 0.4 0.2
v 0.3 0.4 0.1
v 0.3 0.4 -0.1
v 0.3 0.4 -0.2
v 0.3 0.4 -0.4
v 0.3 0.6 0.4
v 0.3 0.6 0.2
v 0.3 0.6 -0.2
v 0.3 0.6 -0.4
v 0.3 0.7 0.2
v 0.3 0.7 -0.2
v 0.4 0.4 0.2
v 0.4 0.4 -0.2
v 0.4 0.6 0.2
v 0.4 0.6 -0.2
v -0.3 0.4 0.5
v -0.3 0.6 0.5
v 0.1 0.4 0.5
v 0.1 0.6 0.5
v -0.5 0.4 0.4
v -0.5 0.6 0.4
v -0.3 0.4 0.4
v -0.3 0.6 0.4
v -0.3 0.7 0.4
v -0.2 0.3 0.4
v -0.2 0.4 0.4
v -5.96046e-008 0.3 0.4
v -5.96046e-008 0.4 0.4
v 0.1 0.4 0.4
v 0.1 0.6 0.4
v 0.1 0.7 0.4
v 0.3 0.4 0.4
v 0.3 0.6 0.4
v -0.6 0.4 0.2
v -0.6 0.6 0.2
v -0.5 0.4 0.2
v -0.5 0.6 0.2
v -0.5 0.7 0.2
v -0.3 0.3 0.2
v -0.3 0.4 0.2
v -0.3 0.6 0.2
v -0.3 0.7 0.2
v -0.2 0 0.2
v -0.2 0.3 0.2
v -0.2 0.4 0.2
v -5.96046e-008 0 0.2
v -5.96046e-008 0.3 0.2
v -5.96046e-008 0.4 0.2
v 0.1 0.3 0.2
v 0.1 0.4 0.2
v 0.1 0.6 0.2
v 0.1 0.7 0.2
v 0.3 0.4 0.2
v 0.3 0.6 0.2
v 0.3 0.7 0.2
v 0.4 0.4 0.2
v 0.4 0.6 0.2
v -0.5 0.3 0.1
v -0.5 0.4 0.1
v -0.3 0 0.1
v -0.3 0.3 0.1
v -0.3 0.4 0.1
v -0.2 0 0.1
v -0.2 0.3 0.1
v -5.96046e-008 0 0.1
v -5.96046e-008 0.3 0.1
v 0.1 0 0.1
v 0.1 0.3 0.1
v 0.1 0.4 0.1
v 0.3 0.3 0.1
v 0.3 0.4 0.1
v -0.5 0.3 -0.1
v -0.5 0.4 -0.1
v -0.3 0 -0.1
v -0.3 0.3 -0.1
v -0.3 0.4 -0.1
v -0.2 0 -0.1
v -0.2 0.3 -0.1
v -5.96046e-008 0 -0.1
v -5.96046e-008 0.3 -0.1
v 0.1 0 -0.1
v 0.1 0.3 -0.1
v 0.1 0.4 -0.1
v 0.3 0.3 -0.1
v 0.3 0.4 -0.1
v -0.6 0.4 -0.2
v -0.6 0.6 -0.2
v -0.5 0.4 -0.2
v -0.5 0.6 -0.2
v -0.5 0.7 -0.2
v -0.3 0.3 -0.2
v -0.3 0.4 -0.2
v -0.3 0.6 -0.2
v -0.3 0.7 -0.2
v -0.2 0 -0.2
v -0.2 0.3 -0.2
v -0.2 0.4 -0.2
v -5.96046e-008 0 -0.2
v -5.96046e-008 0.3 -0.2
v -5.96046e-008 0.4 -0.2
v 0.1 0.3 -0.2
v 0.1 0.4 -0.2
v 0.1 0.6 -0.2
v 0.1 0.7 -0.2
v 0.3 0.4 -0.2
v 0.3 0.6 -0.2
v 0.3 0.7 -0.2
v 0.4 0.4 -0.2
v 0.4 0.6 -0.2
v -0.5 0.4 -0.4
v -0.5 0.6 -0.4
v -0.3 0.4 -0.4
v -0.3 0.6 -0.4
v -0.3 0.7 -0.4
v -0.2 0.3 -0.4
v -0.2 0.4 -0.4
v -5.96046e-008 0.3 -0.4
v -5.96046e-008 0.4 -0.4
v 0.1 0.4 -0.4
v 0.1 0.6 -0.4
v 0.1 0.7 -0.4
v 0.3 0.4 -0.4
v 0.3 0.6 -0.4
v -0.3 0.4 -0.5
v -0.3 0.6 -0.5
v 0.1 0.4 -0.5
v 0.1 0.6 -0.5
v -0.2 0 0.2
v -5.96046e-008 0 0.2
v -0.3 0 0.1
v -0.2 0 0.1
v -5.96046e-008 0 0.1
v 0.1 0 0.1
v -0.3 0 -0.1
v -0.2 0 -0.1
v -5.96046e-008 0 -0.1
v 0.1 0 -0.1
v -0.2 0 -0.2
v -5.96046e-008 0 -0.2
v -0.2 0.3 0.4
v -5.96046e-008 0.3 0.4
v -0.3 0.3 0.2
v -0.2 0.3 0.2
v -5.96046e-008 0.3 0.2
v 0.1 0.3 0.2
v -0.5 0.3 0.1
v -0.3 0.3 0.1
v -0.2 0.3 0.1
v -5.96046e-008 0.3 0.1
v 0.1 0.3 0.1
v 0.3 0.3 0.1
v -0.5 0.3 -0.1
v -0.3 0.3 -0.1
v -0.2 0.3 -0.1
v -5.96046e-008 0.3 -0.1
v 0.1 0.3 -0.1
v 0.3 0.3 -0.1
v -0.3 0.3 -0.2
v -0.2 0.3 -0.2
v -5.96046e-008 0.3 -0.2
v 0.1 0.3 -0.2
v -0.2 0.3 -0.4
v -5.96046e-008 0.3 -0.4
v -0.3 0.4 0.5
v 0.1 0.4 0.5
v -0.5 0.4 0.4
v -0.3 0.4 0.4
v -0.2 0.4 0.4
v -5.96046e-008 0.4 0.4
v 0.1 0.4 0.4
v 0.3 0.4 0.4
v -0.6 0.4 0.2
v -0.5 0.4 0.2
v -0.3 0.4 0.2
v -0.2 0.4 0.2
v -5.96046e-008 0.4 0.2
v 0.1 0.4 0.2
v 0.3 0.4 0.2
v 0.4 0.4 0.2
v -0.5 0.4 0.1
v -0.3 0.4 0.1
v 0.1 0.4 0.1
v 0.3 0.4 0.1
v -0.5 0.4 -0.1
v -0.3 0.4 -0.1
v 0.1 0.4 -0.1
v 0.3 0.4 -0.1
v -0.6 0.4 -0.2
v -0.5 0.4 -0.2
v -0.3 0.4 -0.2
v -0.2 0.4 -0.2
v -5.96046e-008 0.4 -0.2
v 0.1 0.4 -0.2
v 0.3 0.4 -0.2
v 0.4 0.4 -0.2
v -0.5 0.4 -0.4
v -0.3 0.4 -0.4
v -0.2 0.4 -0.4
v -5.96046e-008 0.4 -0.4
v 0.1 0.4 -0.4
v 0.3 0.4 -0.4
v -0.3 0.4 -0.5
v 0.1 0.4 -0.5
v -0.3 0.6 0.5
v 0.1 0.6 0.5
v -0.5 0.6 0.4
v -0.3 0.6 0.4
v 0.1 0.6 0.4
v 0.3 0.6 0.4
v -0.6 0.6 0.2
v -0.5 0.6 0.2
v -0.3 0.6 0.2
v 0.1 0.6 0.2
v 0.3 0.6 0.2
v 0.4 0.6 0.2
v -0.6 0.6 -0.2
v -0.5 0.6 -0.2
v -0.3 0.6 -0.2
v 0.1 0.6 -0.2
v 0.3 0.6 -0.2
v 0.4 0.6 -0.2
v -0.5 0.6 -0.4
v -0.3 0.6 -0.4
v 0.1 0.6 -0.4
v 0.3 0.6 -0.4
v -0.3 0.6 -0.5
v 0.1 0.6 -0.5
v -0.3 0.7 0.4
v 0.1 0.7 0.4
v -0.5 0.7 0.2
v -0.3 0.7 0.2
v 0.1 0.7 0.2
v 0.3 0.7 0.2
v -0.5 0.7 -0.2
v -0.3 0.7 -0.2
v 0.1 0.7 -0.2
v 0.3 0.7 -0.2
v -0.3 0.7 -0.4
v 0.1 0.7 -0.4

# faces
f 3/3/1 2/3/1 1/3/1
f 4/3/1 2/3/1 3/3/1
f 9/1/1 6/1/1 5/1/1
f 10/1/1 6/1/1 9/1/1
f 13/3/1 8/3/1 7/3/1
f 14/3/1 8/3/1 13/3/1
f 15/3/1 12/3/1 11/3/1
f 16/3/1 12/3/1 15/3/1
f 17/3/1 15/3/1 14/3/1
f 18/3/1 15/3/1 17/3/1
f 22/2/1 20/2/1 19/2/1
f 23/2/1 20/2/1 22/2/1
f 27/1/1 22/1/1 21/1/1
f 28/1/1 22/1/1 27/1/1
f 29/1/1 24/1/1 23/1/1
f 30/1/1 24/1/1 29/1/1
f 33/3/1 26/3/1 25/3/1
f 34/3/1 26/3/1 33/3/1
f 37/3/1 32/3/1 31/3/1
f 38/3/1 32/3/1 37/3/1
f 39/3/1 35/3/1 34/3/1
f 40/3/1 35/3/1 39/3/1
f 41/3/1 37/3/1 36/3/1
f 42/3/1 37/3/1 41/3/1
f 48/2/1 44/2/1 43/2/1
f 49/2/1 44/2/1 48/2/1
f 50/2/1 46/2/1 45/2/1
f 51/2/1 46/2/1 50/2/1
f 53/1/1 48/1/1 47/1/1
f 54/1/1 48/1/1 53/1/1
f 55/1/1 52/1/1 51/1/1
f 56/1/1 52/1/1 55/1/1
f 57/2/2 58/2/2 62/2/2
f 62/2/2 58/2/2 63/2/2
f 59/2/2 60/2/2 64/2/2
f 64/2/2 60/2/2 65/2/2
f 61/1/2 62/1/2 67/1/2
f 67/1/2 62/1/2 68/1/2
f 65/1/2 66/1/2 69/1/2
f 69/1/2 66/1/2 70/1/2
f 71/2/2 72/2/2 74/2/2
f 74/2/2 72/2/2 75/2/2
f 73/1/2 74/1/2 79/1/2
f 79/1/2 74/1/2 80/1/2
f 75/1/2 76/1/2 81/1/2
f 81/1/2 76/1/2 82/1/2
f 77/3/2 78/3/2 85/3/2
f 85/3/2 78/3/2 86/3/2
f 83/3/2 84/3/2 89/3/2
f 89/3/2 84/3/2 90/3/2
f 86/3/2 87/3/2 91/3/2
f 91/3/2 87/3/2 92/3/2
f 88/3/2 89/3/2 93/3/2
f 93/3/2 89/3/2 94/3/2
f 95/1/2 96/1/2 99/1/2
f 99/1/2 96/1/2 100/1/2
f 97/3/2 98/3/2 103/3/2
f 103/3/2 98/3/2 104/3/2
f 101/3/2 102/3/2 105/3/2
f 105/3/2 102/3/2 106/3/2
f 104/3/2 105/3/2 107/3/2
f 107/3/2 105/3/2 108/3/2
f 109/3/2 110/3/2 111/3/2
f 111/3/2 110/3/2 112/3/2
f 115/3/3 114/3/3 113/3/3
f 116/3/3 114/3/3 115/3/3
f 119/3/3 118/3/3 117/3/3
f 120/3/3 118/3/3 119/3/3
f 124/1/3 123/1/3 122/1/3
f 125/1/3 123/1/3 124/1/3
f 127/3/3 121/3/3 120/3/3
f 128/3/3 121/3/3 127/3/3
f 129/3/3 127/3/3 126/3/3
f 130/3/3 127/3/3 129/3/3
f 133/3/3 132/3/3 131/3/3
f 134/3/3 132/3/3 133/3/3
f 138/3/3 135/3/3 134/3/3
f 139/3/3 135/3/3 138/3/3
f 141/1/3 137/1/3 136/1/3
f 142/1/3 137/1/3 141/1/3
f 143/2/3 141/2/3 140/2/3
f 144/2/3 141/2/3 143/2/3
f 146/1/3 145/1/3 144/1/3
f 147/1/3 145/1/3 146/1/3
f 151/3/3 149/3/3 148/3/3
f 152/3/3 149/3/3 151/3/3
f 153/3/3 151/3/3 150/3/3
f 154/3/3 151/3/3 153/3/3
f 158/1/3 156/1/3 155/1/3
f 159/1/3 156/1/3 158/1/3
f 160/2/3 158/2/3 157/2/3
f 161/2/3 158/2/3 160/2/3
f 164/2/3 163/2/3 162/2/3
f 165/2/3 163/2/3 164/2/3
f 167/1/3 166/1/3 165/1/3
f 168/1/3 166/1/3 167/1/3
f 169/1/4 170/1/4 172/1/4
f 172/1/4 170/1/4 173/1/4
f 171/2/4 172/2/4 174/2/4
f 174/2/4 172/2/4 175/2/4
f 176/2/4 177/2/4 178/2/4
f 178/2/4 177/2/4 179/2/4
f 179/1/4 180/1/4 181/1/4
f 181/1/4 180/1/4 182/1/4
f 183/3/4 184/3/4 185/3/4
f 185/3/4 184/3/4 186/3/4
f 186/3/4 187/3/4 190/3/4
f 190/3/4 187/3/4 191/3/4
f 188/1/4 189/1/4 193/1/4
f 193/1/4 189/1/4 194/1/4
f 192/2/4 193/2/4 195/2/4
f 195/2/4 193/2/4 196/2/4
f 196/1/4 197/1/4 198/1/4
f 198/1/4 197/1/4 199/1/4
f 200/3/4 201/3/4 203/3/4
f 203/3/4 201/3/4 204/3/4
f 202/3/4 203/3/4 205/3/4
f 205/3/4 203/3/4 206/3/4
f 207/3/4 208/3/4 209/3/4
f 209/3/4 208/3/4 210/3/4
f 212/1/4 213/1/4 214/1/4
f 214/1/4 213/1/4 215/1/4
f 210/3/4 211/3/4 217/3/4
f 217/3/4 211/3/4 218/3/4
f 216/3/4 217/3/4 219/3/4
f 219/3/4 217/3/4 220/3/4
f 221/3/4 222/3/4 223/3/4
f 223/3/4 222/3/4 224/3/4
f 228/2/5 226/2/5 225/2/5
f 229/2/5 226/2/5 228/2/5
f 231/2/5 228/2/5 227/2/5
f 231/2/5 230/2/5 229/2/5
f 231/2/5 229/2/5 228/2/5
f 232/2/5 230/2/5 231/2/5
f 233/2/5 230/2/5 232/2/5
f 234/2/5 230/2/5 233/2/5
f 235/2/5 233/2/5 232/2/5
f 236/2/5 233/2/5 235/2/5
f 240/1/5 238/1/5 237/1/5
f 241/1/5 238/1/5 240/1/5
f 244/1/5 240/1/5 239/1/5
f 245/1/5 240/1/5 244/1/5
f 246/1/5 242/1/5 241/1/5
f 247/1/5 242/1/5 246/1/5
f 249/1/5 244/1/5 243/1/5
f 250/1/5 244/1/5 249/1/5
f 253/1/5 248/1/5 247/1/5
f 254/1/5 248/1/5 253/1/5
f 255/1/5 251/1/5 250/1/5
f 256/1/5 251/1/5 255/1/5
f 257/1/5 253/1/5 252/1/5
f 258/1/5 253/1/5 257/1/5
f 259/1/5 257/1/5 256/1/5
f 260/1/5 257/1/5 259/1/5
f 264/3/5 262/3/5 261/3/5
f 265/3/5 262/3/5 264/3/5
f 266/3/5 262/3/5 265/3/5
f 267/3/5 262/3/5 266/3/5
f 270/3/5 264/3/5 263/3/5
f 270/3/5 265/3/5 264/3/5
f 271/3/5 265/3/5 270/3/5
f 272/3/5 265/3/5 271/3/5
f 273/3/5 267/3/5 266/3/5
f 273/3/5 268/3/5 267/3/5
f 274/3/5 268/3/5 273/3/5
f 275/3/5 268/3/5 274/3/5
f 277/3/5 271/3/5 270/3/5
f 277/3/5 270/3/5 269/3/5
f 278/3/5 271/3/5 277/3/5
f 279/3/5 276/3/5 275/3/5
f 279/3/5 275/3/5 274/3/5
f 280/3/5 276/3/5 279/3/5
f 281/3/5 277/3/5 269/3/5
f 284/3/5 276/3/5 280/3/5
f 285/3/5 282/3/5 281/3/5
f 285/3/5 281/3/5 269/3/5
f 286/3/5 282/3/5 285/3/5
f 287/3/5 282/3/5 286/3/5
f 290/3/5 284/3/5 283/3/5
f 291/3/5 276/3/5 284/3/5
f 291/3/5 284/3/5 290/3/5
f 292/3/5 276/3/5 291/3/5
f 293/3/5 288/3/5 287/3/5
f 293/3/5 287/3/5 286/3/5
f 294/3/5 288/3/5 293/3/5
f 295/3/5 288/3/5 294/3/5
f 296/3/5 290/3/5 289/3/5
f 296/3/5 291/3/5 290/3/5
f 297/3/5 291/3/5 296/3/5
f 298/3/5 291/3/5 297/3/5
f 299/3/5 295/3/5 294/3/5
f 299/3/5 297/3/5 296/3/5
f 299/3/5 296/3/5 295/3/5
f 300/3/5 297/3/5 299/3/5
f 301/3/6 302/3/6 304/3/6
f 304/3/6 302/3/6 305/3/6
f 303/3/6 304/3/6 308/3/6
f 308/3/6 304/3/6 309/3/6
f 305/3/6 306/3/6 310/3/6
f 310/3/6 306/3/6 311/3/6
f 307/3/6 308/3/6 313/3/6
f 313/3/6 308/3/6 314/3/6
f 311/3/6 312/3/6 317/3/6
f 317/3/6 312/3/6 318/3/6
f 314/3/6 315/3/6 319/3/6
f 319/3/6 315/3/6 320/3/6
f 316/3/6 317/3/6 321/3/6
f 321/3/6 317/3/6 322/3/6
f 320/3/6 321/3/6 323/3/6
f 323/3/6 321/3/6 324/3/6
f 325/3/6 326/3/6 328/3/6
f 328/3/6 326/3/6 329/3/6
f 327/3/6 328/3/6 331/3/6
f 329/3/6 330/3/6 331/3/6
f 328/3/6 329/3/6 331/3/6
f 331/3/6 330/3/6 332/3/6
f 332/3/6 330/3/6 333/3/6
f 333/3/6 330/3/6 334/3/6
f 332/3/6 333/3/6 335/3/6
f 335/3/6 333/3/6 336/3/6
